{"title":"Passenger 57 (1992) - HINDI  By~ Amit_Anil","uid":8857225,"size":421855727,"categoryP":"video","categoryS":"movies","magnet":"?xt=urn:btih:d4bcde1ce46168e08422496a3e6d01b38d6cb718&amp;dn=Passenger+57+%281992%29+-+HINDI++By%7E+Amit_Anil&amp;tr=udp%3A%2F%2Ftracker.openbittorrent.com%3A80&amp;tr=udp%3A%2F%2Fopen.demonii.com%3A1337&amp;tr=udp%3A%2F%2Ftracker.coppersurfer.tk%3A6969&amp;tr=udp%3A%2F%2Fexodus.desync.com%3A6969","seeders":0,"leechers":1,"uploader":"Amit.Anil","files":4,"time":1377690723,"description":" &lt;a href=&quot;http://img690.imageshack.us/img690/739/amitanil.jpg&quot; rel=&quot;nofollow&quot; target=&quot;_NEW&quot;&gt;http://img690.imageshack.us/img690/739/amitanil.jpg&lt;/a&gt;\n &lt;a href=&quot;\nhttp://www.imdb.com/title/tt0105104/&quot; rel=&quot;nofollow&quot; target=&quot;_NEW&quot;&gt;\nhttp://www.imdb.com/title/tt0105104/&lt;/a&gt;\n\n\n\n\nPassenger 57 (1992) - HINDI\n\nFile size                                : 402 MB\nDuration                                 : 1h 19mn\nOverall bit rate                         : 709 Kbps\n\nVideo\n\nWidth                                    : 352 pixels\nHeight                                   : 288 pixels\nFrame rate                               : 25.000 fps\n\n\nStream size                              : 309 MiB (77%)\n\nAudio\n\nStream size                              : 90.8 MiB (23%)\n\nIN HINDI BY - AMIT_ANIL\n\n","torrent":{"xt":"urn:btih:d4bcde1ce46168e08422496a3e6d01b38d6cb718","amp;dn":"Passenger+57+%281992%29+-+HINDI++By%7E+Amit_Anil","amp;tr":["udp%3A%2F%2Ftracker.openbittorrent.com%3A80","udp%3A%2F%2Fopen.demonii.com%3A1337","udp%3A%2F%2Ftracker.coppersurfer.tk%3A6969","udp%3A%2F%2Fexodus.desync.com%3A6969"],"infoHash":"d4bcde1ce46168e08422496a3e6d01b38d6cb718","infoHashBuffer":{"type":"Buffer","data":[212,188,222,28,228,97,104,224,132,34,73,106,62,109,1,179,141,108,183,24]},"announce":[],"urlList":[]}}